<?xml version="1.0" encoding="UTF-8" standalone="no"?>
<!-- Created with Inkscape (http://www.inkscape.org/) -->

<svg
   xmlns:dc="http://purl.org/dc/elements/1.1/"
   xmlns:cc="http://creativecommons.org/ns#"
   xmlns:rdf="http://www.w3.org/1999/02/22-rdf-syntax-ns#"
   xmlns:svg="http://www.w3.org/2000/svg"
   xmlns="http://www.w3.org/2000/svg"
   xmlns:sodipodi="http://sodipodi.sourceforge.net/DTD/sodipodi-0.dtd"
   xmlns:inkscape="http://www.inkscape.org/namespaces/inkscape"
   width="200"
   height="200"
   id="svg2"
   version="1.1"
   inkscape:version="0.48.4 r9939"
   sodipodi:docname="SHOPING2-1.svg">
  <defs
     id="defs4" />
  <sodipodi:namedview
     id="base"
     pagecolor="#ffffff"
     bordercolor="#666666"
     borderopacity="1.0"
     inkscape:pageopacity="0.0"
     inkscape:pageshadow="2"
     inkscape:zoom="5.6568543"
     inkscape:cx="142.90632"
     inkscape:cy="121.31921"
     inkscape:document-units="px"
     inkscape:current-layer="layer1"
     showgrid="false"
     inkscape:showpageshadow="false"
     showguides="false"
     inkscape:guide-bbox="true"
     inkscape:window-width="1366"
     inkscape:window-height="715"
     inkscape:window-x="-8"
     inkscape:window-y="-8"
     inkscape:window-maximized="1">
    <sodipodi:guide
       orientation="1,0"
       position="100,100"
       id="guide3755" />
    <sodipodi:guide
       orientation="0,1"
       position="100,100"
       id="guide3757" />
    <sodipodi:guide
       orientation="0,1"
       position="100,80.892857"
       id="guide3763" />
    <sodipodi:guide
       orientation="0,1"
       position="111.60714,86.785714"
       id="guide3769" />
    <sodipodi:guide
       orientation="0,1"
       position="100,61.607143"
       id="guide3771" />
  </sodipodi:namedview>
  <metadata
     id="metadata7">
    <rdf:RDF>
      <cc:Work
         rdf:about="">
        <dc:format>image/svg+xml</dc:format>
        <dc:type
           rdf:resource="http://purl.org/dc/dcmitype/StillImage" />
        <dc:title></dc:title>
      </cc:Work>
    </rdf:RDF>
  </metadata>
  <g
     inkscape:label="Layer 1"
     inkscape:groupmode="layer"
     id="layer1"
     transform="translate(0,-852.36218)">
    <path
       sodipodi:type="arc"
       style="fill:none;stroke:#000000;stroke-width:1.25;stroke-linecap:round;stroke-linejoin:round;stroke-miterlimit:4;stroke-opacity:1;stroke-dasharray:none;opacity:1"
       id="in"
       sodipodi:cx="100"
       sodipodi:cy="100"
       sodipodi:rx="24.677124"
       sodipodi:ry="24.677124"
       d="m 124.67712,100 a 24.677124,24.677124 0 1 1 -49.354244,0 24.677124,24.677124 0 1 1 49.354244,0 z"
       transform="translate(0,852.36218)"
       inkscape:label="#path3765" />
    <path
       style="opacity:0.5;fill:none;stroke:#000000;stroke-width:1px;stroke-linecap:butt;stroke-linejoin:miter;stroke-opacity:1"
       d="M 100.34375,18.53125 C 100.10552,18.538812 99.99332,18.5534 100,18.5625 l 0,16.75 11.6875,2.375 0.0937,-0.375 c 9.564,1.224346 18.0434,5.668716 26.25,10.90625 l -4.8125,7.125 c -7.3319,-5.420586 -15.13165,-8.823448 -23.29682,-9.839844 L 109,76.75 c 12.59112,4.80091 17.32999,17.518345 15.8125,26.46875 -2.02121,11.92148 -10.37107,21.59039 -25,22.125 C 88.283578,125.76507 72.446971,113.81252 75.28125,96.0625 77.208375,83.993645 86.433303,77.893515 93.5,76 c 7.51417,-2.013415 15.4984,0.744953 15.4984,0.744953 L 109.90625,45.5 111.68304,37.698661 100,35.332051 100,36.375 c 0,0 -31.390843,-0.59959 -50.3125,24.40625 -20.347224,26.137979 -10.75,58.3125 -10.75,58.3125 L 52.15625,114.875 c 0,0 10.686486,35.375 47.84375,35.375 35.97073,0 47.90625,-34.875 47.90625,-34.875 l 17.15625,3.71875 c 0,0 0.79971,-2.21111 1.875,-9.375 C 167.8186,103.84858 167.90625,100 167.90625,100 l 13.15625,0 c 0.10055,0.0503 0.69387,-33.19145 -23.84375,-57.625 -23.25847,-23.159834 -53.30154,-23.957187 -56.875,-23.84375 z"
       transform="translate(0,852.36218)"
       id="out"
       inkscape:connector-curvature="0"
       sodipodi:nodetypes="sccccccccssssccccccccsccsccss" />
  </g>
</svg>
