<?xml version="1.0" encoding="UTF-8" standalone="no"?>
<!-- Created with Inkscape (http://www.inkscape.org/) -->

<svg
   xmlns:dc="http://purl.org/dc/elements/1.1/"
   xmlns:cc="http://creativecommons.org/ns#"
   xmlns:rdf="http://www.w3.org/1999/02/22-rdf-syntax-ns#"
   xmlns:svg="http://www.w3.org/2000/svg"
   xmlns="http://www.w3.org/2000/svg"
   xmlns:sodipodi="http://sodipodi.sourceforge.net/DTD/sodipodi-0.dtd"
   xmlns:inkscape="http://www.inkscape.org/namespaces/inkscape"
   width="200"
   height="200"
   id="svg2"
   version="1.1"
   viewbox="0 0 200 200"
   inkscape:version="0.48.4 r9939"
   sodipodi:docname="devlogo.svg">
  <defs
     id="defs4" />
  <sodipodi:namedview
     id="base"
     pagecolor="#ffffff"
     bordercolor="#666666"
     borderopacity="1.0"
     inkscape:pageopacity="0.0"
     inkscape:pageshadow="2"
     inkscape:zoom="0.49497475"
     inkscape:cx="443.11531"
     inkscape:cy="291.84542"
     inkscape:document-units="px"
     inkscape:current-layer="layer1"
     showgrid="false"
     inkscape:showpageshadow="false"
     inkscape:window-width="1366"
     inkscape:window-height="715"
     inkscape:window-x="-8"
     inkscape:window-y="-8"
     inkscape:window-maximized="1" />
  <metadata
     id="metadata7">
    <rdf:RDF>
      <cc:Work
         rdf:about="">
        <dc:format>image/svg+xml</dc:format>
        <dc:type
           rdf:resource="http://purl.org/dc/dcmitype/StillImage" />
        <dc:title></dc:title>
      </cc:Work>
    </rdf:RDF>
  </metadata>
  <g
     inkscape:label="Layer 1"
     inkscape:groupmode="layer"
     id="layer1"
     transform="translate(0,-852.36218)">
    <path
       style="fill:#0085ff;fill-opacity:1;stroke:none"
       d="m 21.793631,877.49762 0,152.84498 57.821988,0 c 0,0 64.935021,1.63 64.935021,-76.42255 0,-76.12006 -64.935021,-76.42243 -64.935021,-76.42243 l -57.821988,0 z M 75.40899,901.332 c 10.706241,10e-5 19.233478,3.09976 25.69867,9.28432 5.32724,5.06026 8.03077,10.74164 8.03082,17.11363 -5e-5,9.04279 -5.45451,16.22914 -16.367589,21.61722 6.516792,1.2651 11.697739,4.118 15.602749,8.52218 3.90489,4.40427 5.88918,9.70429 5.88928,15.93578 -10e-5,9.04273 -3.64458,16.76944 -10.93723,23.1415 -7.292759,6.37207 -16.366956,9.56147 -27.228345,9.56147 -10.292525,0 -18.846735,-2.6724 -25.622171,-8.03716 C 43.69968,993.10622 39.782745,986.0759 38.69661,977.408 l 21.109626,-2.28644 c 0.672342,4.87278 2.482242,8.57811 5.43037,11.15504 2.948108,2.57695 6.518303,3.88004 10.707771,3.88002 4.499689,2e-5 8.24223,-1.54981 11.319661,-4.64216 3.077392,-3.09231 4.665493,-7.29314 4.665531,-12.54076 -3.8e-5,-4.96644 -1.488029,-8.87366 -4.43608,-11.77862 -2.948146,-2.90487 -6.54323,-4.36496 -10.784255,-4.36502 -2.793017,6e-5 -6.140398,0.47112 -10.019436,1.455 l 2.371017,-16.07435 c 5.896159,0.14055 10.434396,-1.00441 13.537691,-3.46428 3.103238,-2.45975 4.665455,-5.76229 4.665532,-9.83862 -7.7e-5,-3.46708 -1.166082,-6.18339 -3.441791,-8.24503 -2.275766,-2.06147 -5.326012,-3.11777 -9.101611,-3.11786 -3.723985,9e-5 -6.846238,1.19099 -9.48403,3.53357 -2.637792,2.34277 -4.249596,5.75647 -4.818499,10.25434 l -20.115318,-3.11788 c 1.39647,-6.23143 3.529332,-11.17154 6.348175,-14.89647 2.818786,-3.72478 6.735721,-6.66739 11.778564,-8.79932 5.042747,-2.13174 10.721182,-3.18706 16.979462,-3.18716 z"
       id="path2985-7"
       inkscape:connector-curvature="0" />
    <g
       transform="matrix(1.3298025,0,0,1.3298025,-198.7788,1042.4616)"
       style="font-size:40px;font-style:normal;font-weight:normal;line-height:125%;letter-spacing:0px;word-spacing:0px;fill:#00b2ff;fill-opacity:1;stroke:#00b2ff;font-family:Sans;stroke-opacity:1;stroke-width:2.81996763;stroke-miterlimit:4;stroke-dasharray:none"
       id="text3045" />
    <path
       inkscape:connector-curvature="0"
       style="fill:#00b2ff;fill-opacity:1;stroke:none"
       d="m 157.67297,994.26992 0,28.62088 4.61299,0 0,-7.7561 c 0,0 11.31451,0.044 11.31451,-10.4323 0,-10.68638 -11.31451,-10.43248 -11.31451,-10.43248 l -4.61299,0 z m 16.12013,17.41778 c -1.37358,2.0983 -3.39936,3.7519 -5.8296,4.6738 l 0.97329,2.7172 c 2.99509,-1.0692 5.5826,-3.0712 7.3605,-5.708 l -2.50419,-1.683 z"
       id="path2985" />
  </g>
</svg>
